<svg width="69" height="93" viewBox="0 0 69 93" fill="none" xmlns="http://www.w3.org/2000/svg">
<g filter="url(#filter0_d)">
<path d="M30.2841 76C27.4198 76 10.0405 64.2378 9.03587 42.4432C8.03129 20.6486 28.4599 12 28.4599 12C28.4599 12 22.7664 20.6486 22.4317 24.8C22.0969 28.9514 26.4505 32.0649 30.2841 32.0649C34.1177 32.0649 35.8276 29.2973 36.3122 27.5676C36.7967 25.8378 36.3122 22.7243 34.1531 20.6486C31.9941 18.573 36.4974 16.8432 36.4974 16.8432C36.4974 16.8432 34.9547 21.0549 38.8417 24.9535C39.7463 25.8608 45.2047 27.2216 48.5536 32.0649C51.9026 36.9081 51.9026 42.4432 51.9026 42.4432C53.5771 58.0108 33.1484 76 30.2841 76Z" stroke="black" stroke-width="5"/>
<path d="M13 52C13 52 20.5018 63 31.0018 63C41.5017 63 47 54.0001 47 54.0001C47 54.0001 43 73.5 30 74C17 74.5 13 52 13 52Z" fill="black"/>
<path d="M36.892 35.8888L22.4841 46.4793L27.7672 49.0178L23.3436 58.2245L37.5159 47.5207L32.4684 45.0955L36.892 35.8888Z" fill="black"/>
</g>
<defs>
<filter id="filter0_d" x="0.499878" y="0.479492" width="68.0003" height="92.0206" filterUnits="userSpaceOnUse" color-interpolation-filters="sRGB">
<feFlood flood-opacity="0" result="BackgroundImageFix"/>
<feColorMatrix in="SourceAlpha" type="matrix" values="0 0 0 0 0 0 0 0 0 0 0 0 0 0 0 0 0 0 127 0"/>
<feOffset dx="4" dy="4"/>
<feGaussianBlur stdDeviation="5"/>
<feColorMatrix type="matrix" values="0 0 0 0 0 0 0 0 0 0 0 0 0 0 0 0 0 0 0.25 0"/>
<feBlend mode="normal" in2="BackgroundImageFix" result="effect1_dropShadow"/>
<feBlend mode="normal" in="SourceGraphic" in2="effect1_dropShadow" result="shape"/>
</filter>
</defs>
</svg>
