<svg width="49" height="73" viewBox="0 0 49 73" fill="none" xmlns="http://www.w3.org/2000/svg">
<path d="M24.2841 70C21.4198 70 4.04046 58.2378 3.03587 36.4432C2.03129 14.6486 22.4599 6 22.4599 6C22.4599 6 16.7664 14.6486 16.4317 18.8C16.0969 22.9514 20.4505 26.0649 24.2841 26.0649C28.1177 26.0649 29.8276 23.2973 30.3122 21.5676C30.7967 19.8378 30.3122 16.7243 28.1531 14.6486C25.9941 12.573 30.4974 10.8432 30.4974 10.8432C30.4974 10.8432 28.9547 15.0549 32.8417 18.9535C33.7463 19.8608 39.2047 21.2216 42.5536 26.0649C45.9026 30.9081 45.9026 36.4432 45.9026 36.4432C47.5771 52.0108 27.1484 70 24.2841 70Z" stroke="#EDF2EF" stroke-width="5"/>
<path d="M7 46C7 46 14.5018 57 25.0018 57C35.5017 57 41 48.0001 41 48.0001C41 48.0001 37 67.5 24 68C11 68.5 7 46 7 46Z" fill="#EDF2EF"/>
<path d="M30.8922 29.8887L16.4842 40.4792L21.7674 43.0177L17.3437 52.2244L31.5161 41.5206L26.4685 39.0953L30.8922 29.8887Z" fill="#EDF2EF"/>
</svg>
