<svg width="49" height="73" viewBox="0 0 49 73" fill="none" xmlns="http://www.w3.org/2000/svg">
<path fill-rule="evenodd" clip-rule="evenodd" d="M22.4599 6.00003L21.4852 3.69785L29.0872 0.479479L24.5483 7.37428L24.5482 7.37438L24.548 7.37467L24.546 7.37776L24.5359 7.39313L24.4927 7.45948C24.454 7.51915 24.3959 7.6091 24.3211 7.72614C24.1714 7.96031 23.9553 8.30232 23.6941 8.7267C23.1705 9.57736 22.4714 10.7497 21.7651 12.0422C21.0555 13.3406 20.3572 14.7264 19.8226 16.0099C19.2669 17.3442 18.9747 18.3671 18.9236 19.001C18.8365 20.0802 19.3347 21.1668 20.4142 22.0846C21.5145 23.0202 22.9947 23.5649 24.2841 23.5649C26.5885 23.5649 27.5961 21.9952 27.9048 20.8932C28.003 20.5426 28.0487 19.7939 27.8065 18.8749C27.5732 17.9896 27.1172 17.1207 26.4205 16.4509C25.3808 15.4513 24.7936 14.0637 25.1897 12.5467C25.5122 11.3119 26.3803 10.479 26.944 10.0234C27.5679 9.51906 28.2396 9.1453 28.7077 8.91076C28.9514 8.78871 29.1626 8.69316 29.317 8.62649C29.3946 8.59299 29.4589 8.56632 29.507 8.5468C29.5311 8.53703 29.5512 8.52901 29.5669 8.52279L29.5873 8.5148L29.595 8.51182L29.5982 8.51058L29.5996 8.51002C29.6003 8.50976 29.601 8.50951 30.4974 10.8433L29.601 8.50951L34.7373 6.53663L32.8554 11.6743C32.8531 11.6817 32.8496 11.6937 32.845 11.7098C32.8293 11.7656 32.8024 11.87 32.7758 12.0148C32.722 12.307 32.6723 12.7459 32.7066 13.2741C32.7712 14.2661 33.1322 15.6574 34.5163 17.0909C34.535 17.1018 34.5586 17.1152 34.5875 17.1312C34.7588 17.2256 34.9983 17.3435 35.3491 17.5114L35.574 17.6187C36.2216 17.9275 37.079 18.3363 38 18.8506C40.0735 20.0086 42.6352 21.7872 44.6099 24.643C46.5307 27.4209 47.4677 30.3567 47.9304 32.5555C48.1634 33.6627 48.281 34.6063 48.3406 35.2836C48.3705 35.6229 48.386 35.8973 48.394 36.0944C48.3972 36.173 48.3992 36.2395 48.4005 36.2929C49.2928 45.0974 44.045 54.1273 38.7326 60.6397C36.0061 63.9822 33.1268 66.8285 30.7161 68.8583C29.5141 69.8704 28.3927 70.7099 27.4362 71.3122C26.9605 71.6117 26.4834 71.8794 26.0284 72.0806C25.6419 72.2515 25.0015 72.5 24.2841 72.5C23.3118 72.5 22.281 72.0805 21.4995 71.7017C20.5992 71.2653 19.564 70.6454 18.4568 69.8651C16.2379 68.3013 13.6102 66.0083 11.06 63.0163C5.95525 57.0274 1.07172 48.1263 0.538515 36.5584C-0.00517225 24.763 5.28244 16.5001 10.6205 11.264C13.2801 8.65509 15.9659 6.77949 17.9877 5.554C19.001 4.93982 19.8543 4.48482 20.4636 4.17934C20.7685 4.02649 21.013 3.91076 21.1865 3.83097C21.2734 3.79107 21.3425 3.76012 21.3927 3.73799L21.4536 3.71137L21.4732 3.70298L21.4801 3.70001L21.4829 3.69883C21.4841 3.69832 21.4852 3.69785 22.4599 6.00003ZM32.8179 21.8414C32.789 21.9774 32.7562 22.111 32.7195 22.242C32.0591 24.5995 29.647 28.5649 24.2841 28.5649C21.74 28.5649 19.1266 27.5529 17.1753 25.8938C15.2033 24.2171 13.692 21.6712 13.9397 18.5991C14.056 17.1572 14.601 15.5423 15.2069 14.0875C15.2678 13.9414 15.3301 13.7949 15.3938 13.6482C14.9711 14.0225 14.5458 14.4175 14.1218 14.8334C9.49671 19.3702 5.07232 26.3289 5.53321 36.3282C5.70465 40.0475 6.38362 43.4561 7.39727 46.5449C9.07523 48.7637 15.9161 57.0001 25.0018 57.0001C35.3434 57.0001 40.8331 48.2694 40.9962 48.0062C42.8048 44.2005 43.8047 40.316 43.4169 36.7106L43.4026 36.5773V36.4503L43.4026 36.4482L43.4022 36.4289C43.4018 36.4041 43.4006 36.3598 43.3981 36.2976C43.393 36.173 43.3823 35.9772 43.3599 35.7219C43.3148 35.21 43.2231 34.4671 43.0375 33.5851C42.663 31.8055 41.9255 29.5521 40.4973 27.4868C39.1231 25.4994 37.2811 24.176 35.562 23.2159C34.79 22.7848 34.0763 22.4442 33.4225 22.1322L33.1906 22.0214C33.068 21.9628 32.9427 21.9025 32.8179 21.8414ZM16.4841 40.4793L30.892 29.8888L26.4683 39.0954L31.5159 41.5207L17.3435 52.2245L21.7672 43.0178L16.4841 40.4793Z" fill="black"/>
</svg>
