<svg width="33" height="57" viewBox="0 0 33 57" fill="none" xmlns="http://www.w3.org/2000/svg">
<path fill-rule="evenodd" clip-rule="evenodd" d="M14.7645 5.52055L13.7899 3.21837L21.3919 0L16.8531 6.8946L16.8529 6.89486L16.8527 6.8952L16.8522 6.89596L16.8466 6.90443L16.8211 6.94371C16.7978 6.97959 16.7623 7.03444 16.7164 7.10625C16.6246 7.24998 16.4912 7.46107 16.3296 7.72356C16.0053 8.25044 15.5733 8.97506 15.1378 9.77187C14.6991 10.5746 14.2755 11.4168 13.9558 12.1846C13.6148 13.0033 13.4774 13.5385 13.4572 13.7886C13.4321 14.1003 13.5587 14.5153 14.074 14.9535C14.6102 15.4094 15.3336 15.6663 15.9143 15.6663C16.4579 15.6663 16.7268 15.4924 16.8942 15.3353C17.1128 15.13 17.2527 14.8479 17.306 14.6575C17.3059 14.658 17.3059 14.6578 17.3061 14.657L17.3061 14.657L17.3061 14.6569C17.308 14.648 17.3243 14.5706 17.3214 14.4231C17.3184 14.2683 17.2949 14.0774 17.2403 13.8704C17.1292 13.4488 16.9176 13.0596 16.62 12.7735C15.7799 11.9658 15.2383 10.762 15.5906 9.413C15.8692 8.34607 16.6041 7.66505 17.0095 7.33732C17.4751 6.96094 17.9636 6.69111 18.2882 6.52853C18.46 6.44245 18.6093 6.37489 18.7197 6.32721C18.7753 6.3032 18.8221 6.28377 18.8582 6.26912L18.9044 6.25063L18.9212 6.24403L18.928 6.24139L18.931 6.24024L18.9324 6.23971C18.9331 6.23945 18.9337 6.2392 19.8301 8.57297L18.9337 6.2392L24.07 4.26632L22.196 9.38251C22.1914 9.40037 22.1836 9.4331 22.1752 9.47868C22.1524 9.60237 22.1291 9.80153 22.1449 10.045C22.1719 10.46 22.3124 11.0815 22.9354 11.7694C23.0157 11.8107 23.127 11.8651 23.2869 11.9417L23.4269 12.0085C23.834 12.2025 24.4012 12.4728 25.0093 12.8124C26.3816 13.5788 28.1292 14.784 29.4848 16.7444C30.7864 18.6269 31.4138 20.6033 31.7217 22.0665C31.8773 22.806 31.9563 23.4378 31.9965 23.8952C32.0167 24.1246 32.0273 24.3121 32.0329 24.4497C32.0345 24.4885 32.0357 24.5234 32.0366 24.5541C32.621 30.4795 29.1074 36.4088 25.7366 40.5411C23.9818 42.6924 22.1266 44.5273 20.5634 45.8436C19.7851 46.499 19.0432 47.0561 18.3934 47.4652C18.071 47.6682 17.7291 47.8617 17.3874 48.0128C17.1143 48.1335 16.5654 48.356 15.9143 48.356C15.0743 48.356 14.2598 48.0045 13.756 47.7603C13.1336 47.4586 12.4377 47.0401 11.7091 46.5266C10.2474 45.4965 8.53387 43.999 6.87632 42.0543C3.55696 38.1599 0.372841 32.3609 0.0253619 24.8223C-0.332599 17.0563 3.15947 11.6075 6.65555 8.17819C8.39421 6.47272 10.1474 5.24869 11.4668 4.44893C12.1289 4.04761 12.6886 3.74901 13.0922 3.54671C13.2941 3.44546 13.4576 3.36801 13.576 3.31361C13.6351 3.2864 13.6831 3.26493 13.719 3.24909L13.7638 3.22955L13.7792 3.22292L13.7851 3.22038L13.7877 3.21931C13.7888 3.21883 13.7899 3.21837 14.7645 5.52055ZM22.8075 11.699C22.8081 11.699 22.8161 11.7036 22.8302 11.7129C22.8141 11.7036 22.807 11.699 22.8075 11.699ZM21.8375 16.7936C21.095 18.4948 19.3037 20.6663 15.9143 20.6663C14.0789 20.6663 12.2223 19.9421 10.8352 18.7627C9.48082 17.6111 8.37455 15.8328 8.45789 13.6475C6.40211 16.2889 4.80237 19.8693 5.02006 24.5921C5.1692 27.8277 5.95168 30.6757 7.05928 33.1208C9.05109 35.1255 12.363 37.6629 16.3665 37.6629C19.4897 37.6629 21.9107 36.3995 23.5967 35.0652C25.895 31.7003 27.3888 28.0921 27.0535 24.9745L27.0391 24.8412V24.7182L27.0391 24.7162L27.0387 24.7016C27.0384 24.6901 27.0379 24.6738 27.0371 24.6529C27.0344 24.5878 27.0286 24.4789 27.0158 24.3336C26.9901 24.0415 26.9371 23.6104 26.8289 23.0962C26.6091 22.0521 26.1812 20.7581 25.3722 19.5881C24.6171 18.4962 23.5892 17.7463 22.5714 17.1778C22.3172 17.0359 22.0741 16.9106 21.8375 16.7936ZM15.7355 56.2423C21.8267 56.2423 26.7647 54.5493 26.7647 52.4608C26.7647 50.3724 21.8267 48.6794 15.7355 48.6794C9.64419 48.6794 4.70623 50.3724 4.70623 52.4608C4.70623 54.5493 9.64419 56.2423 15.7355 56.2423Z" fill="black"/>
</svg>
