<svg width="48" height="86" viewBox="0 0 48 86" fill="none" xmlns="http://www.w3.org/2000/svg">
<path fill-rule="evenodd" clip-rule="evenodd" d="M21.96 5.52055L20.9853 3.21837L28.5873 0L24.0484 6.8948L24.0483 6.8949L24.0481 6.8952L24.0461 6.89828L24.036 6.91365L23.9928 6.98C23.9541 7.03967 23.896 7.12962 23.8212 7.24666C23.6715 7.48083 23.4554 7.82284 23.1942 8.24722C22.6706 9.09788 21.9715 10.2702 21.2652 11.5627C20.5556 12.8611 19.8573 14.247 19.3227 15.5304C18.767 16.8647 18.4748 17.8877 18.4237 18.5215C18.3366 19.6007 18.8348 20.6873 19.9143 21.6051C21.0146 22.5407 22.4948 23.0854 23.7842 23.0854C26.0886 23.0854 27.0962 21.5157 27.4049 20.4138C27.5031 20.0631 27.5488 19.3144 27.3066 18.3954C27.0733 17.5102 26.6173 16.6413 25.9206 15.9714C24.8809 14.9719 24.2937 13.5842 24.6898 12.0673C25.0123 10.8324 25.8805 9.99952 26.4441 9.54388C27.068 9.03958 27.7397 8.66582 28.2079 8.43128C28.4515 8.30923 28.6627 8.21368 28.8171 8.14701C28.8947 8.11351 28.959 8.08684 29.0071 8.06732C29.0312 8.05755 29.0513 8.04953 29.067 8.04331L29.0874 8.03532L29.0951 8.03234L29.0983 8.0311L29.0998 8.03054C29.1004 8.03028 29.1011 8.03003 29.9975 10.3638L29.1011 8.03003L34.2374 6.05715L32.3555 11.1948C32.3532 11.2023 32.3497 11.2142 32.3451 11.2303C32.3294 11.2862 32.3025 11.3905 32.2759 11.5354C32.2221 11.8276 32.1724 12.2664 32.2068 12.7946C32.2713 13.7866 32.6323 15.1779 34.0164 16.6114C34.0351 16.6223 34.0587 16.6358 34.0876 16.6517C34.259 16.7461 34.4984 16.864 34.8492 17.0319L35.0741 17.1392C35.7217 17.448 36.5792 17.8568 37.5001 18.3711C39.5736 19.5291 42.1353 21.3077 44.11 24.1636C46.0308 26.9415 46.9678 29.8773 47.4305 32.076C47.6635 33.1832 47.7811 34.1268 47.8407 34.8041C47.8706 35.1434 47.8861 35.4179 47.8941 35.6149C47.8973 35.6935 47.8993 35.76 47.9006 35.8134C48.7929 44.6179 43.5451 53.6478 38.2327 60.1602C35.5062 63.5028 32.6269 66.3491 30.2162 68.3789C29.0142 69.391 27.8928 70.2304 26.9363 70.8327C26.4606 71.1323 25.9835 71.3999 25.5285 71.6012C25.142 71.7721 24.5016 72.0206 23.7842 72.0206C22.8119 72.0206 21.7811 71.6011 20.9996 71.2222C20.0993 70.7858 19.0641 70.166 17.9569 69.3857C15.738 67.8219 13.1103 65.5289 10.5601 62.5369C5.45536 56.5479 0.571831 47.6469 0.0386255 36.0789C-0.505062 24.2835 4.78255 16.0206 10.1206 10.7845C12.7803 8.17561 15.4661 6.30001 17.4878 5.07452C18.5011 4.46034 19.3544 4.00534 19.9638 3.69986C20.2686 3.54701 20.5131 3.43129 20.6867 3.35149C20.7735 3.31159 20.8426 3.28064 20.8928 3.25851L20.9538 3.2319L20.9733 3.2235L20.9802 3.22053L20.983 3.21935C20.9842 3.21884 20.9853 3.21837 21.96 5.52055ZM32.318 21.3619C32.2891 21.4979 32.2563 21.6315 32.2196 21.7625C31.5592 24.12 29.1471 28.0854 23.7842 28.0854C21.2401 28.0854 18.6267 27.0734 16.6755 25.4143C14.7034 23.7376 13.1921 21.1917 13.4398 18.1196C13.5561 16.6778 14.1011 15.0629 14.7071 13.608C14.7679 13.462 14.8302 13.3155 14.8939 13.1687C14.4712 13.543 14.0459 13.938 13.6219 14.3539C8.99682 18.8907 4.57243 25.8495 5.03332 35.8487C5.20476 39.568 5.88373 42.9766 6.89738 46.0655C8.57534 48.2842 15.4162 56.5206 24.5019 56.5206C34.843 56.5206 40.3327 47.7907 40.4963 47.5267C42.3049 43.721 43.3048 39.8366 42.917 36.2312L42.9027 36.0979V35.9709L42.9027 35.9687L42.9024 35.9494C42.9019 35.9246 42.9007 35.8803 42.8982 35.8181C42.8931 35.6935 42.8825 35.4977 42.86 35.2424C42.8149 34.7305 42.7233 33.9876 42.5377 33.1057C42.1631 31.326 41.4256 29.0726 39.9974 27.0073C38.6232 25.0199 36.7812 23.6965 35.0622 22.7365C34.2901 22.3053 33.5764 21.9647 32.9226 21.6527L32.6907 21.5419C32.5681 21.4833 32.4428 21.423 32.318 21.3619ZM23.5 86C33.165 86 41 83.3137 41 80C41 76.6863 33.165 74 23.5 74C13.835 74 6 76.6863 6 80C6 83.3137 13.835 86 23.5 86Z" fill="black"/>
</svg>
