<svg width="49" height="73" viewBox="0 0 49 73" fill="none" xmlns="http://www.w3.org/2000/svg">
<path fill-rule="evenodd" clip-rule="evenodd" d="M22.4599 6.00004L21.4852 3.69786L29.0872 0.479492L24.5483 7.37429L24.5482 7.37439L24.548 7.37469L24.546 7.37777L24.5359 7.39314L24.4927 7.45949C24.454 7.51917 24.3959 7.60912 24.3211 7.72615C24.1714 7.96032 23.9553 8.30233 23.6941 8.72671C23.1704 9.57737 22.4714 10.7497 21.7651 12.0422C21.0555 13.3406 20.3571 14.7265 19.8226 16.0099C19.2669 17.3442 18.9747 18.3672 18.9235 19.001C18.8365 20.0802 19.3347 21.1668 20.4141 22.0846C21.5145 23.0202 22.9947 23.5649 24.2841 23.5649C26.5885 23.5649 27.5961 21.9952 27.9048 20.8932C28.003 20.5426 28.0487 19.7939 27.8065 18.8749C27.5732 17.9896 27.1172 17.1207 26.4205 16.4509C25.3808 15.4513 24.7936 14.0637 25.1897 12.5468C25.5121 11.3119 26.3803 10.479 26.944 10.0234C27.5679 9.51907 28.2395 9.14531 28.7077 8.91077C28.9514 8.78872 29.1626 8.69317 29.317 8.62651C29.3946 8.593 29.4589 8.56633 29.507 8.54682C29.531 8.53704 29.5511 8.52903 29.5669 8.52281L29.5873 8.51482L29.595 8.51183L29.5982 8.51059L29.5996 8.51004C29.6003 8.50978 29.601 8.50952 30.4974 10.8433L29.601 8.50952L34.7373 6.53664L32.8554 11.6743C32.8531 11.6818 32.8496 11.6937 32.845 11.7098C32.8293 11.7657 32.8024 11.87 32.7758 12.0149C32.722 12.3071 32.6723 12.7459 32.7066 13.2741C32.7712 14.2661 33.1322 15.6574 34.5163 17.0909C34.535 17.1018 34.5586 17.1153 34.5875 17.1312C34.7588 17.2256 34.9983 17.3435 35.3491 17.5114L35.574 17.6187C36.2216 17.9275 37.079 18.3363 37.9999 18.8506C40.0735 20.0086 42.6352 21.7872 44.6099 24.643C46.5307 27.4209 47.4676 30.3568 47.9304 32.5555C48.1634 33.6627 48.281 34.6063 48.3406 35.2836C48.3705 35.6229 48.3859 35.8974 48.394 36.0944C48.3972 36.173 48.3992 36.2395 48.4004 36.2929C49.2928 45.0974 44.045 54.1273 38.7326 60.6397C36.006 63.9823 33.1268 66.8285 30.7161 68.8584C29.5141 69.8705 28.3927 70.7099 27.4362 71.3122C26.9605 71.6117 26.4834 71.8794 26.0284 72.0806C25.6419 72.2516 25.0014 72.5 24.2841 72.5C23.3118 72.5 22.281 72.0805 21.4995 71.7017C20.5992 71.2653 19.5639 70.6455 18.4568 69.8652C16.2379 68.3014 13.6102 66.0083 11.06 63.0164C5.95524 57.0274 1.07171 48.1264 0.538503 36.5584C-0.00518423 24.763 5.28243 16.5001 10.6205 11.264C13.2801 8.6551 15.9659 6.7795 17.9877 5.55402C19.001 4.93983 19.8543 4.48484 20.4636 4.17935C20.7685 4.02651 21.013 3.91078 21.1865 3.83099C21.2733 3.79108 21.3425 3.76014 21.3927 3.738L21.4536 3.71139L21.4732 3.70299L21.4801 3.70002L21.4829 3.69884C21.4841 3.69833 21.4852 3.69786 22.4599 6.00004ZM32.8179 21.8414C32.789 21.9774 32.7562 22.111 32.7195 22.242C32.0591 24.5995 29.647 28.5649 24.2841 28.5649C21.74 28.5649 19.1266 27.5529 17.1753 25.8938C15.2033 24.2171 13.692 21.6712 13.9397 18.5991C14.056 17.1572 14.601 15.5423 15.2069 14.0875C15.2678 13.9415 15.3301 13.7949 15.3938 13.6482C14.9711 14.0225 14.5458 14.4175 14.1218 14.8334C9.4967 19.3702 5.0723 26.329 5.5332 36.3282C5.70464 40.0475 6.38361 43.4561 7.39726 46.545C9.07522 48.7637 15.9161 57.0001 25.0018 57.0001C35.3434 57.0001 40.8331 48.2694 40.9962 48.0062C42.8048 44.2005 43.8047 40.316 43.4169 36.7107L43.4026 36.5774V36.4504L43.4026 36.4482L43.4022 36.4289C43.4017 36.4041 43.4006 36.3598 43.3981 36.2976C43.393 36.173 43.3823 35.9772 43.3599 35.7219C43.3148 35.21 43.2231 34.4671 43.0375 33.5852C42.663 31.8055 41.9254 29.5521 40.4973 27.4868C39.1231 25.4994 37.2811 24.176 35.562 23.2159C34.79 22.7848 34.0763 22.4442 33.4225 22.1322L33.1905 22.0214C33.068 21.9628 32.9427 21.9025 32.8179 21.8414ZM11.6544 34.9706C12.0158 34.4346 12.7433 34.293 13.2793 34.6544L22.9462 41.1722C23.4822 41.5336 23.6238 42.2611 23.2623 42.7972C22.9009 43.3332 22.1734 43.4748 21.6374 43.1133L11.9705 36.5956C11.4345 36.2342 11.2929 35.5067 11.6544 34.9706ZM38.2851 35.4875C37.3588 34.1137 35.4943 33.7509 34.1205 34.6772L27.4874 39.1495C26.1136 40.0757 25.7508 41.9402 26.6771 43.314C27.6033 44.6878 29.4678 45.0506 30.8416 44.1243L37.4747 39.652C38.8485 38.7258 39.2113 36.8612 38.2851 35.4875ZM34.7945 44.5626C35.6752 44.275 35.9934 44.1711 35.5 44.5C34.8453 44.9365 34.1906 45.627 33.4527 46.4052C32.5001 47.4099 31.4088 48.5608 30 49.5C27.5 51.1667 22.5998 53.4928 18.5 51.5C14.3368 49.4764 13 41 13 41C13 41 18 46.5 24.5 46.5C28.8617 46.5 32.9982 45.1492 34.7945 44.5626Z" fill="black"/>
</svg>
