<svg width="49" height="73" viewBox="0 0 49 73" fill="none" xmlns="http://www.w3.org/2000/svg">
<path d="M24.2841 70C21.4198 70 4.04046 58.2378 3.03587 36.4432C2.03129 14.6486 22.4599 6 22.4599 6C22.4599 6 16.7664 14.6486 16.4317 18.8C16.0969 22.9514 20.4505 26.0649 24.2841 26.0649C28.1177 26.0649 29.8276 23.2973 30.3122 21.5676C30.7967 19.8378 30.3122 16.7243 28.1531 14.6486C25.9941 12.573 30.4974 10.8432 30.4974 10.8432C30.4974 10.8432 28.9547 15.0549 32.8417 18.9535C33.7463 19.8608 39.2047 21.2216 42.5536 26.0649C45.9026 30.9081 45.9026 36.4432 45.9026 36.4432C47.5771 52.0108 27.1484 70 24.2841 70Z" stroke="black" stroke-width="5"/>
<rect x="12.3086" y="34" width="14" height="2.34118" rx="1.17059" transform="rotate(33.9892 12.3086 34)" fill="black"/>
<path d="M7 46C7 46 14.5018 57 25.0018 57C35.5017 57 41 48.0001 41 48.0001C41 48.0001 37 67.5 24 68C11 68.5 7 46 7 46Z" fill="black"/>
<rect width="14" height="6" rx="3" transform="matrix(-0.829143 0.559037 0.559037 0.829143 36.6079 33)" fill="black"/>
<path d="M35.4999 44.5C36.9999 43.5 30.9999 46.5 24.4999 46.5C17.9999 46.5 12.9999 41 12.9999 41C12.9999 41 14.3367 49.4764 18.4999 51.5C22.5997 53.4928 27.4999 51.1667 29.9999 49.5C32.4999 47.8333 33.9999 45.5 35.4999 44.5Z" fill="black"/>
</svg>
